<?xml version="1.0" encoding="UTF-8"?>
<svg width="700pt" height="700pt" version="1.1" viewBox="0 0 700 700" xmlns="http://www.w3.org/2000/svg" xmlns:xlink="http://www.w3.org/1999/xlink">
 <defs>
  <symbol id="t" overflow="visible">
   <path d="m3.4688-0.20312c-0.17969 0.09375-0.36719 0.16406-0.5625 0.20312-0.1875 0.050781-0.38672 0.078125-0.59375 0.078125-0.63672 0-1.1367-0.17578-1.5-0.53125-0.36719-0.35156-0.54688-0.83203-0.54688-1.4375 0-0.60156 0.17969-1.0781 0.54688-1.4219 0.36328-0.35156 0.86328-0.53125 1.5-0.53125 0.20703 0 0.40625 0.027344 0.59375 0.078125 0.19531 0.042969 0.38281 0.10938 0.5625 0.20312v0.78125c-0.17969-0.125-0.35547-0.21094-0.53125-0.26562-0.17969-0.0625-0.35938-0.09375-0.54688-0.09375-0.35547 0-0.63281 0.11719-0.82812 0.34375-0.19922 0.21875-0.29688 0.52344-0.29688 0.90625 0 0.39844 0.097656 0.70312 0.29688 0.92188 0.19531 0.21875 0.47266 0.32812 0.82812 0.32812 0.1875 0 0.36719-0.023437 0.54688-0.078125 0.17578-0.0625 0.35156-0.14844 0.53125-0.26562z"/>
  </symbol>
  <symbol id="d" overflow="visible">
   <path d="m2.5469-2.0625c-0.085937-0.039062-0.16797-0.066406-0.25-0.078125-0.074219-0.019531-0.15234-0.03125-0.23438-0.03125-0.23047 0-0.40625 0.078125-0.53125 0.23438-0.125 0.14844-0.1875 0.35547-0.1875 0.625v1.3125h-0.90625v-2.8438h0.90625v0.46875c0.11328-0.1875 0.24219-0.32031 0.39062-0.40625 0.15625-0.082031 0.33594-0.125 0.54688-0.125 0.03125 0 0.0625 0.007812 0.09375 0.015625h0.17188z"/>
  </symbol>
  <symbol id="b" overflow="visible">
   <path d="m3.2656-1.4219v0.25h-2.125c0.03125 0.21875 0.10938 0.38281 0.23438 0.48438 0.13281 0.10547 0.32031 0.15625 0.5625 0.15625 0.1875 0 0.37891-0.023438 0.57812-0.078125 0.19531-0.0625 0.40625-0.14844 0.625-0.26562v0.70312c-0.21875 0.085938-0.4375 0.14844-0.65625 0.1875-0.21094 0.039062-0.42188 0.0625-0.64062 0.0625-0.51172 0-0.91406-0.12891-1.2031-0.39062-0.28125-0.25781-0.42188-0.62891-0.42188-1.1094 0-0.45703 0.14062-0.81641 0.42188-1.0781 0.28125-0.26953 0.66406-0.40625 1.1562-0.40625 0.44531 0 0.80078 0.13672 1.0625 0.40625 0.26953 0.27344 0.40625 0.63281 0.40625 1.0781zm-0.9375-0.3125c0-0.16406-0.054687-0.30078-0.15625-0.40625-0.09375-0.10156-0.21875-0.15625-0.375-0.15625-0.17969 0-0.32422 0.054687-0.4375 0.15625-0.10547 0.09375-0.17188 0.23047-0.20312 0.40625z"/>
  </symbol>
  <symbol id="k" overflow="visible">
   <path d="m1.7031-1.2812c-0.1875 0-0.32812 0.039062-0.42188 0.10938-0.09375 0.0625-0.14062 0.15625-0.14062 0.28125 0 0.11719 0.035156 0.20312 0.10938 0.26562 0.082031 0.0625 0.19141 0.09375 0.32812 0.09375 0.16406 0 0.30469-0.054688 0.42188-0.17188 0.11328-0.125 0.17188-0.28125 0.17188-0.46875v-0.10938zm1.3906-0.34375v1.625h-0.92188v-0.42188c-0.11719 0.17969-0.25 0.30859-0.40625 0.39062-0.14844 0.070312-0.32812 0.10938-0.54688 0.10938-0.30469 0-0.54688-0.082031-0.73438-0.25-0.17969-0.17578-0.26562-0.39844-0.26562-0.67188 0-0.33203 0.11328-0.57812 0.34375-0.73438 0.22656-0.15625 0.58594-0.23438 1.0781-0.23438h0.53125v-0.078125c0-0.14453-0.058594-0.25-0.17188-0.3125-0.10547-0.0625-0.27734-0.09375-0.51562-0.09375-0.19922 0-0.38281 0.023437-0.54688 0.0625-0.16797 0.03125-0.32422 0.089844-0.46875 0.17188v-0.70312c0.19531-0.039063 0.39062-0.070313 0.57812-0.09375 0.19531-0.03125 0.39453-0.046875 0.59375-0.046875 0.50781 0 0.87891 0.10547 1.1094 0.3125 0.22656 0.19922 0.34375 0.52344 0.34375 0.96875z"/>
  </symbol>
  <symbol id="c" overflow="visible">
   <path d="m1.4219-3.6406v0.79688h0.9375v0.65625h-0.9375v1.2031c0 0.13672 0.023437 0.22656 0.078125 0.26562 0.050781 0.042969 0.15625 0.0625 0.3125 0.0625h0.46875v0.65625h-0.78125c-0.35547 0-0.60938-0.070312-0.76562-0.21875-0.14844-0.15625-0.21875-0.41016-0.21875-0.76562v-1.2031h-0.45312v-0.65625h0.45312v-0.79688z"/>
  </symbol>
  <symbol id="j" overflow="visible">
   <path d="m2.3594-2.4219v-1.5156h0.92188v3.9375h-0.92188v-0.40625c-0.125 0.16797-0.26172 0.29297-0.40625 0.375-0.14844 0.070312-0.32031 0.10938-0.51562 0.10938-0.35547 0-0.64844-0.14062-0.875-0.42188-0.21875-0.28125-0.32812-0.64062-0.32812-1.0781s0.10938-0.78906 0.32812-1.0625c0.22656-0.28125 0.51953-0.42188 0.875-0.42188 0.1875 0 0.35156 0.042969 0.5 0.125 0.15625 0.074219 0.29688 0.19531 0.42188 0.35938zm-0.59375 1.8438c0.19531 0 0.34375-0.070313 0.4375-0.21875 0.10156-0.14453 0.15625-0.35156 0.15625-0.625 0-0.26953-0.054687-0.47266-0.15625-0.60938-0.09375-0.14453-0.24219-0.21875-0.4375-0.21875-0.1875 0-0.33594 0.074219-0.4375 0.21875-0.10547 0.13672-0.15625 0.33984-0.15625 0.60938 0 0.27344 0.050781 0.48047 0.15625 0.625 0.10156 0.14844 0.25 0.21875 0.4375 0.21875z"/>
  </symbol>
  <symbol id="i" overflow="visible">
   <path d="m1.9531-0.57812c0.1875 0 0.33203-0.070313 0.4375-0.21875 0.10156-0.14453 0.15625-0.35156 0.15625-0.625 0-0.26953-0.054687-0.47266-0.15625-0.60938-0.10547-0.14453-0.25-0.21875-0.4375-0.21875-0.19922 0-0.35156 0.074219-0.45312 0.21875-0.10547 0.14844-0.15625 0.35156-0.15625 0.60938 0 0.27344 0.050781 0.48047 0.15625 0.625 0.10156 0.14844 0.25391 0.21875 0.45312 0.21875zm-0.60938-1.8438c0.125-0.16406 0.25781-0.28516 0.40625-0.35938 0.15625-0.082031 0.33203-0.125 0.53125-0.125 0.35156 0 0.64062 0.14062 0.85938 0.42188 0.22656 0.27344 0.34375 0.625 0.34375 1.0625s-0.11719 0.79688-0.34375 1.0781c-0.21875 0.28125-0.50781 0.42188-0.85938 0.42188-0.19922 0-0.375-0.039062-0.53125-0.10938-0.14844-0.082031-0.28125-0.20703-0.40625-0.375v0.40625h-0.90625v-3.9375h0.90625z"/>
  </symbol>
  <symbol id="e" overflow="visible">
   <path d="m0.0625-2.8438h0.90625l0.76562 1.9375 0.64062-1.9375h0.90625l-1.1875 3.1094c-0.11719 0.3125-0.25781 0.53125-0.42188 0.65625-0.15625 0.13281-0.36719 0.20312-0.625 0.20312h-0.53125v-0.59375h0.28125c0.15625 0 0.26953-0.027344 0.34375-0.078125 0.070313-0.054687 0.125-0.14062 0.15625-0.26562l0.03125-0.078125z"/>
  </symbol>
  <symbol id="h" overflow="visible">
   <path d="m0.46875-3.7812h0.98438v3.7812h-0.98438z"/>
  </symbol>
  <symbol id="g" overflow="visible">
   <path d="m2.7344-2.75v0.73438c-0.125-0.082031-0.25-0.14062-0.375-0.17188-0.125-0.039062-0.25781-0.0625-0.39062-0.0625-0.25 0-0.44922 0.074219-0.59375 0.21875-0.13672 0.14844-0.20312 0.35156-0.20312 0.60938 0 0.27344 0.066406 0.48047 0.20312 0.625 0.14453 0.14844 0.34375 0.21875 0.59375 0.21875 0.14453 0 0.28125-0.019531 0.40625-0.0625 0.125-0.039063 0.24219-0.10156 0.35938-0.1875v0.75c-0.14844 0.054688-0.29297 0.085938-0.4375 0.10938-0.14844 0.03125-0.29297 0.046875-0.4375 0.046875-0.51172 0-0.91406-0.12891-1.2031-0.39062-0.29297-0.26953-0.4375-0.64062-0.4375-1.1094s0.14453-0.83203 0.4375-1.0938c0.28906-0.25781 0.69141-0.39062 1.2031-0.39062 0.14453 0 0.28906 0.015625 0.4375 0.046875 0.14453 0.023437 0.28906 0.058594 0.4375 0.10938z"/>
  </symbol>
  <symbol id="a" overflow="visible">
   <path d="m1.7812-2.25c-0.19922 0-0.35156 0.074219-0.45312 0.21875-0.10547 0.13672-0.15625 0.33984-0.15625 0.60938 0 0.27344 0.050781 0.48047 0.15625 0.625 0.10156 0.14844 0.25391 0.21875 0.45312 0.21875 0.19531 0 0.34766-0.070313 0.45312-0.21875 0.10156-0.14453 0.15625-0.35156 0.15625-0.625 0-0.26953-0.054687-0.47266-0.15625-0.60938-0.10547-0.14453-0.25781-0.21875-0.45312-0.21875zm0-0.65625c0.48828 0 0.86719 0.13672 1.1406 0.40625 0.28125 0.26172 0.42188 0.62109 0.42188 1.0781 0 0.46875-0.14062 0.83984-0.42188 1.1094-0.27344 0.26172-0.65234 0.39062-1.1406 0.39062-0.49219 0-0.875-0.12891-1.1562-0.39062-0.27344-0.26953-0.40625-0.64062-0.40625-1.1094 0-0.45703 0.13281-0.81641 0.40625-1.0781 0.28125-0.26953 0.66406-0.40625 1.1562-0.40625z"/>
  </symbol>
  <symbol id="f" overflow="visible">
   <path d="m3.2812-1.7344v1.7344h-0.90625v-1.3281c0-0.23828-0.007812-0.40625-0.015625-0.5-0.011719-0.09375-0.03125-0.16016-0.0625-0.20312-0.03125-0.0625-0.078125-0.10938-0.14062-0.14062s-0.13281-0.046875-0.20312-0.046875c-0.1875 0-0.33984 0.074219-0.45312 0.21875-0.10547 0.14844-0.15625 0.35156-0.15625 0.60938v1.3906h-0.90625v-2.8438h0.90625v0.42188c0.13281-0.16406 0.28125-0.28516 0.4375-0.35938 0.15625-0.082031 0.32031-0.125 0.5-0.125 0.33203 0 0.58203 0.10547 0.75 0.3125 0.16406 0.19922 0.25 0.48438 0.25 0.85938z"/>
  </symbol>
  <symbol id="s" overflow="visible">
   <path d="m0.4375-2.8438h0.90625v2.8438h-0.90625zm0-1.0938h0.90625v0.73438h-0.90625z"/>
  </symbol>
  <symbol id="r" overflow="visible">
   <path d="m2.2969-3.9375v0.59375h-0.5c-0.125 0-0.21484 0.027344-0.26562 0.078125-0.054688 0.042969-0.078125 0.12109-0.078125 0.23438v0.1875h0.78125v0.65625h-0.78125v2.1875h-0.90625v-2.1875h-0.45312v-0.65625h0.45312v-0.1875c0-0.3125 0.082031-0.53906 0.25-0.6875 0.17578-0.14453 0.44531-0.21875 0.8125-0.21875z"/>
  </symbol>
  <symbol id="q" overflow="visible">
   <path d="m3.0625-2.3594c0.11328-0.17578 0.25-0.3125 0.40625-0.40625s0.33203-0.14062 0.53125-0.14062c0.32031 0 0.56641 0.10547 0.73438 0.3125 0.17578 0.19922 0.26562 0.48438 0.26562 0.85938v1.7344h-0.92188v-1.4844-0.0625c0.007813-0.019531 0.015625-0.054687 0.015625-0.10938 0-0.19531-0.03125-0.33594-0.09375-0.42188-0.0625-0.09375-0.15625-0.14062-0.28125-0.14062-0.17969 0-0.3125 0.074219-0.40625 0.21875-0.09375 0.13672-0.14062 0.33984-0.14062 0.60938v1.3906h-0.92188v-1.4844c0-0.3125-0.027344-0.50781-0.078125-0.59375-0.054687-0.09375-0.14844-0.14062-0.28125-0.14062-0.17969 0-0.3125 0.074219-0.40625 0.21875-0.09375 0.13672-0.14062 0.33984-0.14062 0.60938v1.3906h-0.90625v-2.8438h0.90625v0.42188c0.11328-0.15625 0.23828-0.27344 0.375-0.35938 0.14453-0.082031 0.30469-0.125 0.48438-0.125 0.19531 0 0.36719 0.046875 0.51562 0.14062 0.15625 0.09375 0.26953 0.23047 0.34375 0.40625z"/>
  </symbol>
  <symbol id="p" overflow="visible">
   <path d="m3.2812-1.7344v1.7344h-0.90625v-1.3125c0-0.25-0.007812-0.42188-0.015625-0.51562-0.011719-0.09375-0.03125-0.16016-0.0625-0.20312-0.03125-0.0625-0.078125-0.10938-0.14062-0.14062s-0.13281-0.046875-0.20312-0.046875c-0.1875 0-0.33984 0.074219-0.45312 0.21875-0.10547 0.14844-0.15625 0.35156-0.15625 0.60938v1.3906h-0.90625v-3.9375h0.90625v1.5156c0.13281-0.16406 0.28125-0.28516 0.4375-0.35938 0.15625-0.082031 0.32031-0.125 0.5-0.125 0.33203 0 0.58203 0.10547 0.75 0.3125 0.16406 0.19922 0.25 0.48438 0.25 0.85938z"/>
  </symbol>
  <symbol id="o" overflow="visible">
   <path d="m0.46875-3.7812h1.0938l1.375 2.5938v-2.5938h0.92188v3.7812h-1.0781l-1.375-2.5938v2.5938h-0.9375z"/>
  </symbol>
  <symbol id="n" overflow="visible">
   <path d="m0.40625-1.1094v-1.7344h0.90625v0.29688 0.57812 0.45312c0 0.23047 0.003906 0.39844 0.015625 0.5 0.007813 0.10547 0.03125 0.17969 0.0625 0.21875 0.039063 0.0625 0.085937 0.10938 0.14062 0.14062 0.0625 0.03125 0.13281 0.046875 0.21875 0.046875 0.1875 0 0.33203-0.070313 0.4375-0.21875 0.10156-0.14453 0.15625-0.34766 0.15625-0.60938v-1.4062h0.90625v2.8438h-0.90625v-0.40625c-0.13672 0.16797-0.28125 0.29297-0.4375 0.375-0.14844 0.070312-0.3125 0.10938-0.5 0.10938-0.32422 0-0.57422-0.097656-0.75-0.29688-0.16797-0.20703-0.25-0.50391-0.25-0.89062z"/>
  </symbol>
  <symbol id="m" overflow="visible">
   <path d="m0.46875-3.7812h1.625c0.47656 0 0.84766 0.10938 1.1094 0.32812 0.25781 0.21094 0.39062 0.51172 0.39062 0.90625 0 0.39844-0.13281 0.70312-0.39062 0.92188-0.26172 0.21094-0.63281 0.3125-1.1094 0.3125h-0.64062v1.3125h-0.98438zm0.98438 0.70312v1.0625h0.53125c0.19531 0 0.34375-0.046875 0.4375-0.14062 0.10156-0.09375 0.15625-0.22266 0.15625-0.39062 0-0.16406-0.054687-0.29688-0.15625-0.39062-0.09375-0.09375-0.24219-0.14062-0.4375-0.14062z"/>
  </symbol>
  <symbol id="l" overflow="visible">
   <path d="m0.4375-2.8438h0.90625v2.7969c0 0.375-0.09375 0.66016-0.28125 0.85938-0.17969 0.20703-0.4375 0.3125-0.78125 0.3125h-0.45312v-0.59375h0.15625c0.17578 0 0.29688-0.042969 0.35938-0.125 0.0625-0.074219 0.09375-0.22656 0.09375-0.45312zm0-1.0938h0.90625v0.73438h-0.90625z"/>
  </symbol>
 </defs>
 <g>
  <path d="m544.35 372.92c-3.8125 0-7.1406-2.8047-7.6914-6.6875-0.60547-4.2539 2.3555-8.1914 6.6094-8.793 13.945-1.9805 26.617-8.3203 36.641-18.336 12.238-12.246 18.98-28.523 18.98-45.832 0-7.1484-5.8164-12.965-12.965-12.965l-33.703 0.007812c-4.2969 0-7.7773-3.4805-7.7773-7.7773s3.4805-7.7773 7.7773-7.7773h33.703c15.723 0 28.52 12.793 28.52 28.52 0 21.461-8.3594 41.641-23.535 56.832-12.43 12.422-28.148 20.281-45.457 22.738-0.37109 0.046875-0.73828 0.070313-1.1016 0.070313z"/>
  <path d="m505.55 428.09h-93.332c-1.8203 0-3.582-0.63672-4.9805-1.8008-31.434-26.195-49.465-64.688-49.465-105.61v-55.922c0-12.867 10.469-23.332 23.332-23.332h155.55c12.867 0 23.332 10.469 23.332 23.332v55.922c0 40.922-18.031 79.414-49.465 105.61-1.3945 1.1641-3.1562 1.8008-4.9766 1.8008zm-90.469-15.555h87.605c26.57-23.176 41.754-56.496 41.754-91.855v-55.922c0-4.2891-3.4883-7.7773-7.7773-7.7773h-155.56c-4.2891 0-7.7773 3.4883-7.7773 7.7773v55.922c0 35.363 15.184 68.68 41.754 91.855z"/>
  <path d="m287.78 428.09h-93.332c-1.8203 0-3.582-0.63672-4.9805-1.8008-31.434-26.195-49.465-64.688-49.465-105.61v-55.922c0-12.867 10.469-23.332 23.332-23.332h155.55c12.867 0 23.332 10.469 23.332 23.332v55.922c0 40.922-18.031 79.414-49.465 105.61-1.3945 1.1641-3.1562 1.8008-4.9766 1.8008zm-90.469-15.555h87.605c26.57-23.176 41.754-56.496 41.754-91.855v-55.922c0-4.2891-3.4883-7.7773-7.7773-7.7773h-155.56c-4.2891 0-7.7773 3.4883-7.7773 7.7773v55.922c0 35.363 15.184 68.68 41.754 91.855z"/>
  <path d="m155.77 373.26c-0.35938 0-0.71875-0.023438-1.0859-0.074219-17.359-2.4219-33.121-10.289-45.594-22.746-15.18-15.195-23.539-35.375-23.539-56.836 0-15.723 12.793-28.52 28.52-28.52h33.703c4.2969 0 7.7773 3.4805 7.7773 7.7773s-3.4805 7.7773-7.7773 7.7773h-33.703c-7.1484 0-12.965 5.8164-12.965 12.965 0 17.305 6.7422 33.586 18.984 45.836 10.055 10.043 22.762 16.387 36.742 18.34 4.2539 0.59375 7.2227 4.5234 6.6289 8.7773-0.54297 3.8867-3.875 6.7031-7.6914 6.7031z"/>
  <path d="m563.89 513.64h-427.78c-27.875 0-50.555-22.68-50.555-50.555s22.68-50.555 50.555-50.555h427.78c27.875 0 50.555 22.68 50.555 50.555 0.003906 27.875-22.676 50.555-50.551 50.555zm-427.78-85.559c-19.297 0-35 15.703-35 35 0 19.297 15.703 35 35 35h427.78c19.297 0 35-15.703 35-35 0-19.297-15.703-35-35-35z"/>
  <path d="m458.89 393.09c-8.7383 0-17.164-3.668-23.117-10.066l-32.188-34.594c-14.348-15.426-13.473-39.645 1.9492-53.992 7.0938-6.6016 16.332-10.234 26.016-10.234 10.266 0 20.176 4.1836 27.336 11.516 7.1602-7.3281 17.07-11.516 27.336-11.516 9.6797 0 18.922 3.6367 26.02 10.234 15.422 14.352 16.297 38.57 1.9492 53.996l-32.18 34.59c-5.9531 6.3984-14.379 10.07-23.117 10.07 0-0.003906-0.003906-0.003906-0.003906-0.003906zm-27.34-93.336c-5.7383 0-11.215 2.1562-15.418 6.0664-9.1445 8.5039-9.6602 22.867-1.1562 32.012l32.184 34.594c3.0625 3.293 7.2305 5.1094 11.73 5.1094s8.6641-1.8164 11.73-5.1094l32.184-34.59c8.5039-9.1406 7.9844-23.504-1.1562-32.008-4.207-3.9102-9.6836-6.0664-15.422-6.0664-6.3594 0-12.25 2.5664-16.586 7.2227l-5.0586 5.4375c-1.4727 1.582-3.5352 2.4805-5.6953 2.4805-2.1602 0-4.2227-0.89844-5.6953-2.4805l-5.0547-5.4375c-4.3359-4.6641-10.227-7.2305-16.586-7.2305z"/>
  <path d="m350 218.09c-13.176 0-25.879-5.5312-34.852-15.176l-53.859-57.887c-22.043-23.699-20.699-60.906 2.9961-82.945 10.891-10.137 25.086-15.723 39.961-15.723 16.246 0 31.91 6.8203 42.977 18.719l2.7695 2.9766 2.7695-2.9766c11.066-11.895 26.73-18.719 42.977-18.719 14.875 0 29.066 5.582 39.969 15.723 23.691 22.043 25.035 59.254 2.9961 82.949l-53.852 57.883c-8.9727 9.6406-21.676 15.172-34.852 15.176zm-45.75-156.18c-10.93 0-21.359 4.1055-29.363 11.555-17.414 16.199-18.402 43.547-2.2031 60.965l53.855 57.883c6.1328 6.5898 14.461 10.219 23.465 10.219 9 0 17.332-3.6289 23.461-10.219l53.852-57.883c16.195-17.414 15.207-44.762-2.2031-60.961-8.0117-7.4492-18.445-11.555-29.375-11.555-11.938 0-23.453 5.0156-31.586 13.758l-8.4609 9.0977c-1.4727 1.582-3.5352 2.4805-5.6953 2.4805s-4.2227-0.89844-5.6953-2.4805l-8.4609-9.0977c-8.1367-8.75-19.648-13.762-31.59-13.762z"/>
  <path d="m241.11 393.09c-8.7383 0-17.164-3.668-23.117-10.066l-32.188-34.594c-14.348-15.426-13.473-39.645 1.9492-53.992 7.0938-6.6016 16.332-10.234 26.016-10.234 10.266 0 20.176 4.1836 27.336 11.516 7.1602-7.3281 17.07-11.516 27.336-11.516 9.6797 0 18.922 3.6367 26.02 10.234 15.422 14.352 16.297 38.57 1.9492 53.996l-32.18 34.59c-5.9531 6.3984-14.379 10.07-23.117 10.07 0-0.003906-0.003907-0.003906-0.003907-0.003906zm-27.34-93.336c-5.7383 0-11.215 2.1562-15.418 6.0664-9.1445 8.5039-9.6602 22.867-1.1562 32.012l32.184 34.594c3.0625 3.293 7.2305 5.1094 11.73 5.1094s8.6641-1.8164 11.73-5.1094l32.184-34.59c8.5039-9.1406 7.9844-23.504-1.1562-32.008-4.207-3.9102-9.6836-6.0664-15.422-6.0664-6.3594 0-12.25 2.5664-16.586 7.2227l-5.0586 5.4375c-1.4727 1.582-3.5352 2.4805-5.6953 2.4805s-4.2227-0.89844-5.6953-2.4805l-5.0547-5.4375c-4.3359-4.6641-10.227-7.2305-16.586-7.2305z"/>
  <use x="70" y="575.554688" xlink:href="#t"/>
  <use x="73.804688" y="575.554688" xlink:href="#d"/>
  <use x="76.363281" y="575.554688" xlink:href="#b"/>
  <use x="79.878906" y="575.554688" xlink:href="#k"/>
  <use x="83.378906" y="575.554688" xlink:href="#c"/>
  <use x="85.855469" y="575.554688" xlink:href="#b"/>
  <use x="89.375" y="575.554688" xlink:href="#j"/>
  <use x="94.890625" y="575.554688" xlink:href="#i"/>
  <use x="98.601562" y="575.554688" xlink:href="#e"/>
  <use x="103.789062" y="575.554688" xlink:href="#h"/>
  <use x="105.714844" y="575.554688" xlink:href="#g"/>
  <use x="108.789062" y="575.554688" xlink:href="#a"/>
  <use x="112.351562" y="575.554688" xlink:href="#f"/>
  <use x="116.042969" y="575.554688" xlink:href="#s"/>
  <use x="117.820312" y="575.554688" xlink:href="#e"/>
  <use x="121.203125" y="575.554688" xlink:href="#a"/>
  <use x="70" y="580.742188" xlink:href="#r"/>
  <use x="72.257813" y="580.742188" xlink:href="#d"/>
  <use x="74.8125" y="580.742188" xlink:href="#a"/>
  <use x="78.375" y="580.742188" xlink:href="#q"/>
  <use x="85.582031" y="580.742188" xlink:href="#c"/>
  <use x="88.0625" y="580.742188" xlink:href="#p"/>
  <use x="91.753906" y="580.742188" xlink:href="#b"/>
  <use x="97.074219" y="580.742188" xlink:href="#o"/>
  <use x="101.414062" y="580.742188" xlink:href="#a"/>
  <use x="104.976562" y="580.742188" xlink:href="#n"/>
  <use x="108.667969" y="580.742188" xlink:href="#f"/>
  <use x="114.164062" y="580.742188" xlink:href="#m"/>
  <use x="117.964844" y="580.742188" xlink:href="#d"/>
  <use x="120.523438" y="580.742188" xlink:href="#a"/>
  <use x="124.085938" y="580.742188" xlink:href="#l"/>
  <use x="125.863281" y="580.742188" xlink:href="#b"/>
  <use x="129.378906" y="580.742188" xlink:href="#g"/>
  <use x="132.453125" y="580.742188" xlink:href="#c"/>
 </g>
</svg>
